<?xml version="1.0" encoding="UTF-8"?>
<svg version="1.1" xmlns="http://www.w3.org/2000/svg" width="512" height="512">
<path d="M0 0 C1.01823853 0.00215515 2.03647705 0.0043103 3.08557129 0.00653076 C17.7097884 0.05623391 32.00304638 0.37042012 46.375 3.3125 C47.37160645 3.50585938 48.36821289 3.69921875 49.39501953 3.8984375 C89.29281572 11.78188678 127.87739804 28.29274186 159.375 54.3125 C159.89433105 54.73708496 160.41366211 55.16166992 160.94873047 55.59912109 C172.44879205 65.02031197 183.88986934 74.82826108 193.375 86.3125 C194.15617187 87.19421875 194.93734375 88.0759375 195.7421875 88.984375 C209.76341523 104.88428094 220.72555023 122.49314443 230.375 141.3125 C230.74818359 142.01842285 231.12136719 142.7243457 231.50585938 143.45166016 C249.55200424 177.67331292 257.0507286 217.64749373 256.8125 256 C256.80793793 257.56899048 256.80793793 257.56899048 256.80328369 259.16967773 C256.73313897 275.5317914 255.9068231 291.28221614 252.375 307.3125 C252.05354004 308.82360352 252.05354004 308.82360352 251.72558594 310.36523438 C240.31921549 362.86442411 212.27838281 414.70340976 170.375 449.3125 C169.49328125 450.09367187 168.6115625 450.87484375 167.703125 451.6796875 C151.80321906 465.70091523 134.19435557 476.66305023 115.375 486.3125 C114.66907715 486.68568359 113.9631543 487.05886719 113.23583984 487.44335938 C92.71071713 498.26689675 69.11684366 505.12720357 46.375 509.3125 C45.57433105 509.47331055 44.77366211 509.63412109 43.94873047 509.79980469 C29.52244359 512.62164342 14.95629355 512.62451184 0.3125 512.6875 C-0.65502197 512.69544586 -1.62254395 512.70339172 -2.61938477 512.71157837 C-16.85700422 512.8012644 -30.57965812 511.63386839 -44.625 509.3125 C-45.74656494 509.12977539 -46.86812988 508.94705078 -48.02368164 508.75878906 C-100.65224021 499.46502014 -155.2085636 471.06084128 -189.77734375 429.52734375 C-191.2341308 427.78104723 -192.73619359 426.07252023 -194.25390625 424.37890625 C-235.0783458 378.62210805 -256.44096027 317.55345216 -256.0625 256.625 C-256.05945862 255.57900635 -256.05641724 254.5330127 -256.05328369 253.45532227 C-255.98312274 237.08942398 -255.14442707 221.34814244 -251.625 205.3125 C-251.41601074 204.31573242 -251.20702148 203.31896484 -250.99169922 202.29199219 C-242.87762123 164.32904754 -226.43399938 127.33612982 -201.625 97.3125 C-201.19509766 96.78785156 -200.76519531 96.26320313 -200.32226562 95.72265625 C-182.95867853 74.58217211 -182.95867853 74.58217211 -172.83984375 66.16015625 C-171.09354723 64.7033692 -169.38502023 63.20130641 -167.69140625 61.68359375 C-121.80220074 20.74101974 -61.0361283 -0.23239313 0 0 Z " fill="#FF4141" transform="translate(255.625,-0.3125)"/>
<path d="M0 0 C0.6703125 -0.04576172 1.340625 -0.09152344 2.03125 -0.13867188 C10.1502562 -0.31550629 16.67870628 4.52351603 22.4359436 9.89242554 C23.71566547 11.16078985 24.98486613 12.43983719 26.24462891 13.72802734 C26.94834625 14.43116058 27.6520636 15.13429382 28.37710571 15.85873413 C30.66988537 18.15427074 32.94821683 20.46358228 35.2265625 22.7734375 C36.82564917 24.37999501 38.42562909 25.98566387 40.02645874 27.59048462 C44.21428253 31.79349803 48.38994788 36.00838794 52.56311035 40.22595215 C56.83290713 44.53684575 61.11421086 48.83627846 65.39453125 53.13671875 C73.77425792 61.55919851 82.14117189 69.99428278 90.5 78.4375 C95.30464431 74.4373677 99.81286148 70.24980646 104.19458008 65.79296875 C105.13762245 64.84050766 105.13762245 64.84050766 106.09971619 63.86880493 C107.45332544 62.5014371 108.80585226 61.13299702 110.15738869 59.76358032 C112.30369037 57.59041331 114.45453437 55.42184152 116.6068573 53.25463867 C122.7224563 47.09651611 128.83538234 40.93582504 134.93188477 34.75878906 C138.67243753 30.96949202 142.42287385 27.19022108 146.17978477 23.41714478 C147.60149266 21.98559553 149.01955215 20.55041262 150.43372536 19.11141968 C168.40594559 0.83078684 168.40594559 0.83078684 177.625 -0.359375 C186.14316611 -0.25633267 193.00077827 0.3575829 199.5 6.4375 C204.29759952 12.31874623 206.67568153 16.83273394 206.875 24.4375 C206.92398438 25.695625 206.97296875 26.95375 207.0234375 28.25 C206.48120346 37.24937259 200.40342463 44.26864429 194.23120117 50.27392578 C193.16209 51.34413216 193.16209 51.34413216 192.07138062 52.43595886 C189.74024292 54.76364597 187.39197374 57.07316989 185.04296875 59.3828125 C183.41234426 61.00409998 181.78282878 62.62650355 180.15437317 64.24996948 C175.88611875 68.49922461 171.60305991 72.73324226 167.31665039 76.96417236 C162.93701419 81.29246405 158.57167386 85.63512227 154.20507812 89.9765625 C145.65058276 98.4775949 137.08036496 106.96258488 128.5 115.4375 C132.53142759 120.28258834 136.75967763 124.82156188 141.25219727 129.23974609 C142.22169815 130.19982826 142.22169815 130.19982826 143.21078491 131.17930603 C144.6027106 132.55747145 145.995708 133.93455515 147.38968086 135.31064987 C149.60037126 137.49448999 151.80647893 139.68286095 154.01121521 141.87271118 C160.27595966 148.09491283 166.54330139 154.31441437 172.8269043 160.51757812 C176.68100384 164.32299628 180.52513246 168.13824563 184.36305046 171.95998001 C185.82055254 173.40762699 187.28169217 174.85162173 188.74661446 176.29175949 C190.79957083 178.31073705 192.83955217 180.34205107 194.87719727 182.37646484 C195.4762941 182.95960953 196.07539093 183.54275421 196.69264221 184.14356995 C201.81753858 189.30543353 205.89809995 194.98542621 207.1640625 202.24609375 C207.0679247 211.17729571 206.13010571 218.18411083 200.078125 225.05078125 C193.14564565 231.3682826 186.51768991 231.81307517 177.51171875 232.12890625 C168.81976558 231.33975229 161.56529965 224.08800608 155.75537109 218.14697266 C155.05165375 217.44383942 154.3479364 216.74070618 153.62289429 216.01626587 C151.33011463 213.72072926 149.05178317 211.41141772 146.7734375 209.1015625 C145.17435083 207.49500499 143.57437091 205.88933613 141.97354126 204.28451538 C137.78571747 200.08150197 133.61005212 195.86661206 129.43688965 191.64904785 C125.16709287 187.33815425 120.88578914 183.03872154 116.60546875 178.73828125 C108.22574208 170.31580149 99.85882811 161.88071722 91.5 153.4375 C86.61564272 157.49743383 82.05270696 161.76525917 77.60595703 166.29736328 C76.95614868 166.95505707 76.30634033 167.61275085 75.63684082 168.29037476 C74.2374198 169.70688481 72.83905473 171.12443872 71.44165421 172.54294205 C68.46122321 175.56572 65.47122589 178.57895994 62.48179436 181.59283257 C56.9287876 187.19142543 51.37966794 192.79373201 45.84716797 198.41259766 C41.98558248 202.33372412 38.11176756 206.24239859 34.229702 210.1432457 C32.75883305 211.62581685 31.29249779 213.11290093 29.83093643 214.60464859 C27.78310247 216.69371378 25.71998568 218.76649987 23.65283203 220.83642578 C23.06033661 221.44846863 22.46784119 222.06051147 21.85739136 222.69110107 C15.66758773 228.82241205 8.86173372 232.00566964 0.0625 232.0625 C-7.14185432 231.83871745 -12.15783574 230.35109511 -17.5 225.4375 C-22.40934316 219.43160273 -24.7314341 214.66852399 -24.9375 206.9375 C-24.98326172 206.2671875 -25.02902344 205.596875 -25.07617188 204.90625 C-25.25300629 196.7872438 -20.41398397 190.25879372 -15.04507446 184.5015564 C-13.77671015 183.22183453 -12.49766281 181.95263387 -11.20947266 180.69287109 C-10.1547728 179.63729507 -10.1547728 179.63729507 -9.07876587 178.56039429 C-6.78322926 176.26761463 -4.47391772 173.98928317 -2.1640625 171.7109375 C-0.55750499 170.11185083 1.04816387 168.51187091 2.65298462 166.91104126 C6.85599803 162.72321747 11.07088794 158.54755212 15.28845215 154.37438965 C19.59934575 150.10459287 23.89877846 145.82328914 28.19921875 141.54296875 C36.62169851 133.16324208 45.05678278 124.79632811 53.5 116.4375 C49.46857241 111.59241166 45.24032237 107.05343812 40.74780273 102.63525391 C40.10146881 101.99519913 39.45513489 101.35514435 38.78921509 100.69569397 C37.3972894 99.31752855 36.004292 97.94044485 34.61031914 96.56435013 C32.39962874 94.38051001 30.19352107 92.19213905 27.98878479 90.00228882 C21.72404034 83.78008717 15.45669861 77.56058563 9.1730957 71.35742188 C5.31899616 67.55200372 1.47486754 63.73675437 -2.36305046 59.91501999 C-3.82055254 58.46737301 -5.28169217 57.02337827 -6.74661446 55.58324051 C-8.79957083 53.56426295 -10.83955217 51.53294893 -12.87719727 49.49853516 C-13.4762941 48.91539047 -14.07539093 48.33224579 -14.69264221 47.73143005 C-21.07260201 41.30544994 -25.21501472 34.68074447 -25.1875 25.5 C-25.04426207 18.24656667 -23.52044659 12.80418429 -18.5 7.4375 C-12.48705881 2.53247092 -7.73582224 0.20619379 0 0 Z " fill="#FFFDFD" transform="translate(170.5,145.5625)"/>
</svg>
